<svg width="31" height="30" viewBox="0 0 31 30" fill="none" xmlns="http://www.w3.org/2000/svg">
<rect x="0.816406" width="29.9992" height="30" rx="8" fill="#1C1C1C" fill-opacity="0.85"/>
<path d="M13.4332 21.1691C13.9606 21.0305 14.4315 20.8176 14.8414 20.5272C15.248 20.2395 15.578 19.8665 15.8204 19.4064C16.0605 18.952 16.1807 18.4115 16.1807 17.7839C16.1807 17.0095 15.9967 16.3491 15.6207 15.7971C15.2466 15.2489 14.6826 14.8633 13.9207 14.6444C14.4802 14.3798 14.8988 14.039 15.1838 13.6236C15.4665 13.2076 15.6079 12.6871 15.6079 12.064C15.6079 11.488 15.5133 11.0008 15.3246 10.6118C15.1314 10.2169 14.8616 9.90333 14.5169 9.66762C14.1667 9.43196 13.7521 9.26006 13.2666 9.15702C12.7782 9.05123 12.244 9 11.6519 9H5.81641V21.3774H11.8157C12.3702 21.3775 12.9119 21.3077 13.4332 21.1691ZM8.54187 11.1084H11.0915C11.3325 11.1084 11.5679 11.1256 11.7924 11.1694C12.021 11.2087 12.2179 11.2814 12.3923 11.3868C12.5681 11.488 12.7072 11.6325 12.8123 11.8173C12.9138 12.002 12.9642 12.24 12.9642 12.528C12.9642 13.0466 12.8123 13.4249 12.4988 13.6536C12.1822 13.8861 11.7823 14.0006 11.2995 14.0006H8.54193L8.54187 11.1084ZM8.54187 19.2694V15.861H11.5046C12.0912 15.861 12.5681 15.9959 12.9256 16.2671C13.2827 16.5423 13.4621 16.9951 13.4621 17.6331C13.4621 17.9585 13.4094 18.2279 13.2992 18.4353C13.1896 18.6446 13.0385 18.8092 12.8563 18.9292C12.674 19.054 12.4579 19.1385 12.2142 19.1917C11.9741 19.2455 11.7189 19.2693 11.45 19.2693L8.54187 19.2694Z" fill="#F9F9F9"/>
<path d="M18.2163 20.3066C18.617 20.7229 19.0934 21.0424 19.6635 21.2703C20.234 21.4954 20.8692 21.6096 21.5751 21.6096C22.5881 21.6096 23.4574 21.3776 24.1702 20.912C24.8912 20.4484 25.42 19.6783 25.7684 18.5994H23.6006C23.5166 18.8768 23.2995 19.144 22.9429 19.3939C22.5831 19.644 22.1539 19.7696 21.6573 19.7696C20.9669 19.7696 20.4341 19.5885 20.0656 19.2284C19.6956 18.8684 19.456 18.1976 19.456 17.4892H25.9231C25.9695 16.7938 25.9131 16.1297 25.7519 15.4939C25.5894 14.8571 25.3296 14.2893 24.9643 13.7929C24.5989 13.2956 24.1339 12.8983 23.5667 12.6052C22.9975 12.3081 22.3333 12.1621 21.5751 12.1621C20.8885 12.1621 20.2684 12.2842 19.7061 12.5268C19.1439 12.7703 18.661 13.1037 18.2539 13.5262C17.8477 13.9464 17.5389 14.4474 17.3153 15.028C17.0964 15.6065 16.9844 16.2326 16.9844 16.9027C16.9844 17.5958 17.0923 18.2354 17.3061 18.8131C17.5223 19.394 17.8257 19.8883 18.2163 20.3066ZM19.5685 15.3471C19.6313 15.1234 19.7397 14.9141 19.8985 14.7157C20.0582 14.5206 20.2671 14.3549 20.5218 14.2219C20.7825 14.087 21.1079 14.0208 21.5012 14.0208C22.1057 14.0208 22.6014 14.1959 22.8938 14.5197C23.1875 14.846 23.4023 15.3101 23.4611 15.9378H19.456C19.4675 15.7629 19.5052 15.5651 19.5685 15.3471Z" fill="#F9F9F9"/>
<path d="M23.9703 9.83008H18.9531V11.0515H23.9703V9.83008Z" fill="#F9F9F9"/>
</svg>
