<svg width="31" height="30" viewBox="0 0 31 30" fill="none" xmlns="http://www.w3.org/2000/svg">
<rect x="0.816406" width="29.9992" height="30" rx="8" fill="#1C1C1C" fill-opacity="0.85"/>
<path d="M15.8172 6C13.373 6 13.0662 6.01068 12.1062 6.05437C11.1481 6.09825 10.4941 6.24994 9.92181 6.47251C9.32987 6.70238 8.82774 7.00988 8.32749 7.51031C7.82686 8.01057 7.51935 8.51269 7.28872 9.10444C7.06559 9.67688 6.91371 10.3311 6.87059 11.2888C6.82766 12.2488 6.81641 12.5558 6.81641 15C6.81641 17.4443 6.82728 17.7501 6.87078 18.7101C6.91485 19.6682 7.06654 20.3222 7.28891 20.8944C7.51897 21.4864 7.82648 21.9885 8.32692 22.4888C8.82699 22.9894 9.32912 23.2976 9.92068 23.5275C10.4933 23.7501 11.1475 23.9018 12.1055 23.9456C13.0655 23.9893 13.372 24 15.8161 24C18.2606 24 18.5664 23.9893 19.5264 23.9456C20.4846 23.9018 21.1393 23.7501 21.7119 23.5275C22.3037 23.2976 22.8051 22.9894 23.3051 22.4888C23.8058 21.9885 24.1133 21.4864 24.3439 20.8946C24.5652 20.3222 24.717 19.668 24.762 18.7103C24.8052 17.7503 24.8164 17.4443 24.8164 15C24.8164 12.5557 24.8052 12.249 24.762 11.289C24.717 10.3309 24.5652 9.67688 24.3439 9.10463C24.1133 8.51269 23.8058 8.01056 23.3051 7.51031C22.8045 7.00968 22.3039 6.70219 21.7114 6.4725C21.1376 6.24994 20.4832 6.09825 19.5251 6.05437C18.5651 6.01068 18.2595 6 15.8144 6H15.8172ZM15.0099 7.62188C15.2495 7.6215 15.5169 7.62188 15.8172 7.62188C18.2203 7.62188 18.5051 7.6305 19.454 7.67363C20.3315 7.71375 20.8078 7.86037 21.1251 7.98356C21.5451 8.14668 21.8445 8.34169 22.1593 8.65669C22.4743 8.97169 22.6693 9.27169 22.8328 9.69168C22.956 10.0086 23.1028 10.4848 23.1428 11.3623C23.1859 12.3111 23.1953 12.5961 23.1953 14.9979C23.1953 17.3998 23.1859 17.6848 23.1428 18.6336C23.1026 19.5111 22.956 19.9873 22.8328 20.3042C22.6697 20.7242 22.4743 21.0233 22.1593 21.3381C21.8443 21.6531 21.5452 21.8481 21.1251 22.0112C20.8082 22.1349 20.3315 22.2812 19.454 22.3213C18.5053 22.3644 18.2203 22.3738 15.8172 22.3738C13.414 22.3738 13.1292 22.3644 12.1805 22.3213C11.303 22.2808 10.8267 22.1342 10.5093 22.011C10.0893 21.8479 9.78924 21.6529 9.47425 21.3379C9.15924 21.0229 8.96425 20.7236 8.80074 20.3034C8.67755 19.9866 8.53074 19.5103 8.4908 18.6328C8.44767 17.6841 8.43905 17.3991 8.43905 14.9957C8.43905 12.5923 8.44767 12.3088 8.4908 11.3601C8.53093 10.4826 8.67755 10.0063 8.80074 9.68907C8.96386 9.26906 9.15924 8.96906 9.47425 8.65407C9.78924 8.33906 10.0893 8.14407 10.5093 7.98057C10.8265 7.85681 11.303 7.71057 12.1805 7.67025C13.0107 7.63275 13.3325 7.6215 15.0099 7.61962L15.0099 7.62188ZM20.6214 9.11625C20.0252 9.11625 19.5414 9.59944 19.5414 10.1959C19.5414 10.7921 20.0252 11.2759 20.6214 11.2759C21.2177 11.2759 21.7014 10.7921 21.7014 10.1959C21.7014 9.59962 21.2177 9.11588 20.6214 9.11588L20.6214 9.11625ZM15.8172 10.3781C13.2648 10.3781 11.1953 12.4476 11.1953 15C11.1953 17.5524 13.2648 19.6209 15.8172 19.6209C18.3697 19.6209 20.4384 17.5524 20.4384 15C20.4384 12.4476 18.3695 10.3781 15.8171 10.3781H15.8172ZM15.8172 12C17.474 12 18.8173 13.3431 18.8173 15C18.8173 16.6568 17.474 18 15.8172 18C14.1603 18 12.8172 16.6568 12.8172 15C12.8172 13.3431 14.1603 12 15.8172 12Z" fill="#F9F9F9"/>
</svg>
