<svg width="31" height="31" viewBox="0 0 31 31" fill="none" xmlns="http://www.w3.org/2000/svg">
<rect x="0.777344" y="0.0273438" width="29.9992" height="30" rx="8" fill="#1C1C1C" fill-opacity="0.85"/>
<path fill-rule="evenodd" clip-rule="evenodd" d="M11.7222 22H8.50764V11.8791H11.7222V22ZM10.1149 10.4977H10.0937C9.01536 10.4977 8.31641 9.72024 8.31641 8.74849C8.31641 7.75542 9.03579 7 10.136 7C11.2364 7 11.9126 7.75542 11.9337 8.74849C11.9337 9.72024 11.2364 10.4977 10.1149 10.4977ZM23.3164 22H20.101V16.5852C20.101 15.2252 19.6364 14.2969 18.4726 14.2969C17.5839 14.2969 17.0557 14.922 16.8231 15.5274C16.7385 15.7437 16.7164 16.0444 16.7164 16.3476V22H13.5004C13.5004 22 13.5435 12.8286 13.5004 11.8791H16.7164V13.3133C17.1437 12.6252 17.9062 11.6415 19.6143 11.6415C21.7304 11.6415 23.3164 13.0877 23.3164 16.1961V22Z" fill="#F9F9F9"/>
</svg>
