<svg width="31" height="30" viewBox="0 0 31 30" fill="none" xmlns="http://www.w3.org/2000/svg">
<rect x="0.816406" width="29.9992" height="30" rx="8" fill="#1C1C1C" fill-opacity="0.85"/>
<path d="M13.4571 9C16.5724 9 19.0976 11.4626 19.0976 14.5001C19.0976 17.5376 16.5722 20 13.4571 20C10.342 20 7.81641 17.5376 7.81641 14.5001C7.81641 11.4626 10.3418 9 13.4571 9ZM22.4649 9.32218C24.0225 9.32218 25.2852 11.6402 25.2852 14.5001H25.2854C25.2854 17.3593 24.0227 19.678 22.4651 19.678C20.9074 19.678 19.6447 17.3593 19.6447 14.5001C19.6447 11.6409 20.9073 9.32218 22.4649 9.32218ZM26.8245 9.8615C27.3722 9.8615 27.8164 11.9382 27.8164 14.5001C27.8164 17.0612 27.3724 19.1387 26.8245 19.1387C26.2766 19.1387 25.8328 17.0618 25.8328 14.5001C25.8328 11.9384 26.2768 9.8615 26.8245 9.8615Z" fill="#F9F9F9"/>
</svg>
